<svg xmlns="http://www.w3.org/2000/svg" width="30" height="30" viewBox="0 0 30 30" fill="none">
  <path d="M 15 0 C 13.895 0 13 0.895 13 2 L 13 8 C 13 9.105 13.895 10 15 10 C 16.105 10 17 9.105 17 8 L 17 2 C 17 0.895 16.105 0 15 0 Z M 25.607 4.393 C 24.826 3.612 23.559 3.612 22.778 4.393 L 18.536 8.636 C 17.754 9.417 17.754 10.683 18.536 11.464 C 19.317 12.246 20.583 12.246 21.364 11.464 L 25.607 7.222 C 26.388 6.441 26.388 5.174 25.607 4.393 Z M 28 13 C 29.105 13 30 13.895 30 15 C 30 16.105 29.105 17 28 17 L 22 17 C 20.895 17 20 16.105 20 15 C 20 13.895 20.895 13 22 13 L 28 13 Z M 25.607 25.607 C 26.388 24.826 26.388 23.559 25.607 22.778 L 21.364 18.536 C 20.583 17.754 19.317 17.754 18.536 18.536 C 17.754 19.317 17.754 20.583 18.536 21.364 L 22.778 25.607 C 23.559 26.388 24.826 26.388 25.607 25.607 Z M 13 22 C 13 20.895 13.895 20 15 20 C 16.105 20 17 20.895 17 22 L 17 28 C 17 29.105 16.105 30 15 30 C 13.895 30 13 29.105 13 28 L 13 22 Z M 11.464 18.536 C 10.683 17.755 9.417 17.755 8.636 18.536 L 4.393 22.778 C 3.612 23.559 3.612 24.826 4.393 25.607 C 5.174 26.388 6.441 26.388 7.222 25.607 L 11.464 21.364 C 12.246 20.583 12.246 19.317 11.464 18.536 Z M 8 13 C 9.105 13 10 13.895 10 15 C 10 16.105 9.105 17 8 17 L 2 17 C 0.895 17 0 16.105 0 15 C 0 13.895 0.895 13 2 13 L 8 13 Z M 11.464 11.464 C 12.246 10.683 12.246 9.417 11.464 8.636 L 7.222 4.393 C 6.441 3.612 5.174 3.612 4.393 4.393 C 3.612 5.174 3.612 6.441 4.393 7.222 L 8.636 11.464 C 9.417 12.245 10.683 12.245 11.464 11.464 Z" fill="currentColor" fill-rule="evenodd"/>
</svg>
